<mxfile host="65bd71144e">
    <diagram id="RxPv6xupyiPjXx5Fq1Mp" name="Cash Reconciliation">
        <mxGraphModel dx="832" dy="467" grid="1" gridSize="10" guides="1" tooltips="1" connect="1" arrows="1" fold="1" page="1" pageScale="1" pageWidth="850" pageHeight="1100" background="#CCCCCC" math="0" shadow="0">
            <root>
                <mxCell id="0"/>
                <mxCell id="1" parent="0"/>
                <mxCell id="2" value="Navigation Bar" style="rounded=0;whiteSpace=wrap;html=1;" parent="1" vertex="1">
                    <mxGeometry x="20" y="20" width="780" height="60" as="geometry"/>
                </mxCell>
                <mxCell id="3" value="Footer" style="rounded=0;whiteSpace=wrap;html=1;" parent="1" vertex="1">
                    <mxGeometry x="20" y="1010" width="795" height="60" as="geometry"/>
                </mxCell>
                <mxCell id="rbakoWBd-FfG9HpFcR_M-8" value="" style="rounded=1;whiteSpace=wrap;html=1;" parent="1" vertex="1">
                    <mxGeometry x="740" y="30" width="50" height="40" as="geometry"/>
                </mxCell>
                <mxCell id="rbakoWBd-FfG9HpFcR_M-9" value="Nespresso Suite Title &amp;amp; Logo" style="rounded=1;whiteSpace=wrap;html=1;" parent="1" vertex="1">
                    <mxGeometry x="30" y="30" width="230" height="40" as="geometry"/>
                </mxCell>
                <mxCell id="rbakoWBd-FfG9HpFcR_M-11" style="edgeStyle=none;html=1;exitX=1;exitY=0.5;exitDx=0;exitDy=0;entryX=0;entryY=0.5;entryDx=0;entryDy=0;labelBorderColor=#FFFFFF;textShadow=1;fillColor=#f9f7ed;strokeColor=#36393d;" parent="1" source="rbakoWBd-FfG9HpFcR_M-10" target="rbakoWBd-FfG9HpFcR_M-8" edge="1">
                    <mxGeometry relative="1" as="geometry"/>
                </mxCell>
                <mxCell id="rbakoWBd-FfG9HpFcR_M-10" value="Grid icon to navigate to different apps" style="text;html=1;align=center;verticalAlign=middle;whiteSpace=wrap;rounded=0;labelBackgroundColor=#FFFFFF;" parent="1" vertex="1">
                    <mxGeometry x="510" y="100" width="80" height="60" as="geometry"/>
                </mxCell>
                <mxCell id="rbakoWBd-FfG9HpFcR_M-12" value="Click &quot;Nespresso Suite&quot; to go to dashboard page" style="text;html=1;align=center;verticalAlign=middle;whiteSpace=wrap;rounded=0;labelBackgroundColor=#FFFFFF;" parent="1" vertex="1">
                    <mxGeometry x="150" y="115" width="150" height="30" as="geometry"/>
                </mxCell>
                <mxCell id="rbakoWBd-FfG9HpFcR_M-13" style="edgeStyle=none;html=1;exitX=0.25;exitY=0;exitDx=0;exitDy=0;entryX=0.548;entryY=0.975;entryDx=0;entryDy=0;entryPerimeter=0;labelBorderColor=#FFFFFF;textShadow=1;fillColor=#f9f7ed;strokeColor=#36393d;" parent="1" source="rbakoWBd-FfG9HpFcR_M-12" target="rbakoWBd-FfG9HpFcR_M-9" edge="1">
                    <mxGeometry relative="1" as="geometry"/>
                </mxCell>
                <mxCell id="7" value="" style="rounded=1;whiteSpace=wrap;html=1;" parent="1" vertex="1">
                    <mxGeometry x="30" y="1020" width="90" height="40" as="geometry"/>
                </mxCell>
                <mxCell id="8" value="" style="rounded=1;whiteSpace=wrap;html=1;" parent="1" vertex="1">
                    <mxGeometry x="740" y="1020" width="70" height="40" as="geometry"/>
                </mxCell>
                <mxCell id="10" style="edgeStyle=none;html=1;exitX=0.25;exitY=1;exitDx=0;exitDy=0;entryX=0.5;entryY=0;entryDx=0;entryDy=0;" parent="1" source="9" target="7" edge="1">
                    <mxGeometry relative="1" as="geometry"/>
                </mxCell>
                <mxCell id="9" value="Nespresso Logo that opens tab to Nespresso Canada website" style="text;html=1;align=center;verticalAlign=middle;whiteSpace=wrap;rounded=0;labelBackgroundColor=#FFFFFF;" parent="1" vertex="1">
                    <mxGeometry x="110" y="940" width="150" height="30" as="geometry"/>
                </mxCell>
                <mxCell id="12" style="edgeStyle=none;html=1;exitX=0.5;exitY=1;exitDx=0;exitDy=0;entryX=0.5;entryY=0;entryDx=0;entryDy=0;" parent="1" source="11" target="8" edge="1">
                    <mxGeometry relative="1" as="geometry"/>
                </mxCell>
                <mxCell id="11" value="GitHub logo that opens tab to project repository" style="text;html=1;align=center;verticalAlign=middle;whiteSpace=wrap;rounded=0;labelBackgroundColor=#FFFFFF;" parent="1" vertex="1">
                    <mxGeometry x="630" y="950" width="130" height="30" as="geometry"/>
                </mxCell>
                <mxCell id="15" value="Grid showing input fields to enter count of bill/coin for each cash denomination&lt;div&gt;&lt;br&gt;&lt;/div&gt;&lt;div&gt;3 columns: Cash Denomination, Count of Bill/Coin, Cash Value&lt;/div&gt;" style="rounded=1;whiteSpace=wrap;html=1;" parent="1" vertex="1">
                    <mxGeometry x="20" y="180" width="380" height="470" as="geometry"/>
                </mxCell>
                <mxCell id="16" value="" style="rounded=1;whiteSpace=wrap;html=1;" parent="1" vertex="1">
                    <mxGeometry x="420" y="200" width="380" height="450" as="geometry"/>
                </mxCell>
                <mxCell id="17" value="Grid showing reconciliation results" style="text;html=1;align=center;verticalAlign=middle;whiteSpace=wrap;rounded=0;labelBackgroundColor=default;" parent="1" vertex="1">
                    <mxGeometry x="450" y="170" width="310" height="30" as="geometry"/>
                </mxCell>
                <mxCell id="18" value="Cash Journal Amount Input Field" style="shape=parallelogram;perimeter=parallelogramPerimeter;whiteSpace=wrap;html=1;fixedSize=1;" parent="1" vertex="1">
                    <mxGeometry x="495" y="280" width="220" height="50" as="geometry"/>
                </mxCell>
                <mxCell id="20" value="Comments text area" style="shape=parallelogram;perimeter=parallelogramPerimeter;whiteSpace=wrap;html=1;fixedSize=1;" parent="1" vertex="1">
                    <mxGeometry x="490" y="500" width="220" height="50" as="geometry"/>
                </mxCell>
                <mxCell id="21" value="Total Amount" style="rounded=0;whiteSpace=wrap;html=1;" parent="1" vertex="1">
                    <mxGeometry x="500" y="350" width="210" height="40" as="geometry"/>
                </mxCell>
                <mxCell id="22" value="Difference" style="rounded=0;whiteSpace=wrap;html=1;" parent="1" vertex="1">
                    <mxGeometry x="500" y="400" width="210" height="40" as="geometry"/>
                </mxCell>
                <mxCell id="23" value="Outcome" style="rounded=0;whiteSpace=wrap;html=1;" parent="1" vertex="1">
                    <mxGeometry x="500" y="450" width="210" height="40" as="geometry"/>
                </mxCell>
                <mxCell id="24" value="Shift Selection" style="shape=process;whiteSpace=wrap;html=1;backgroundOutline=1;" parent="1" vertex="1">
                    <mxGeometry x="480" y="210" width="260" height="60" as="geometry"/>
                </mxCell>
                <mxCell id="26" value="Space for signatures (when this is printed)" style="rounded=0;whiteSpace=wrap;html=1;" parent="1" vertex="1">
                    <mxGeometry x="450" y="560" width="310" height="70" as="geometry"/>
                </mxCell>
                <mxCell id="27" value="Print button" style="rounded=1;whiteSpace=wrap;html=1;" parent="1" vertex="1">
                    <mxGeometry x="350" y="920" width="120" height="60" as="geometry"/>
                </mxCell>
                <mxCell id="28" value="Heading" style="rounded=1;whiteSpace=wrap;html=1;" parent="1" vertex="1">
                    <mxGeometry x="20" y="100" width="100" height="60" as="geometry"/>
                </mxCell>
                <mxCell id="29" value="Reset Button to clear form fields in table" style="rounded=1;whiteSpace=wrap;html=1;" parent="1" vertex="1">
                    <mxGeometry x="680" y="100" width="120" height="60" as="geometry"/>
                </mxCell>
                <mxCell id="30" value="This table will appear if selected shift is &quot;Closing&quot;.&amp;nbsp;&lt;div&gt;&lt;br&gt;&lt;/div&gt;&lt;div&gt;The table will consist of cash denominations, count of bill/coin, and cash value. The purpose of this table is to assist the user to extract from the actual cash on hand (i.e., total amount) to set the end of day deposit based on count of bill/coin.&amp;nbsp;&lt;/div&gt;" style="rounded=1;whiteSpace=wrap;html=1;" vertex="1" parent="1">
                    <mxGeometry x="40" y="670" width="740" height="220" as="geometry"/>
                </mxCell>
            </root>
        </mxGraphModel>
    </diagram>
</mxfile>